<svg viewBox="142.453 25.572 478.782 751.513" xmlns="http://www.w3.org/2000/svg"><path d="m399.529785 89.908096c3.163178 10.846108-.278992 19.354927-7.606262 26.92817-5.785767 5.980011-11.219635 12.304954-16.705902 18.567695-1.745148 1.992127-3.350495 4.1633-4.685059 6.448059-4.259308 7.291886-3.069092 14.324616 4.087921 18.667801 12.396485 7.522705 25.689698 13.303787 39.328614 18.244797 2.114319.765961 4.265075.856918 6.294494-.258301 2.74054-1.506012 4.975037-3.674179 5.333557-6.823242.387146-3.400421-2.672332-4.514191-5.085571-5.308014-8.345398-2.745132-12.645141-10.808212-11.760315-20.88942.571533-6.511703 4.435456-11.940231 9.608826-13.352554 6.213501-1.696274 13.04538 1.130341 16.849243 6.950119 4.14856 6.347153 5.38147 13.552689 6.058136 20.889176.385315 4.177383 1.217682 8.249343 2.649872 12.157852 2.740478 7.478943 6.86029 8.479324 12.601929 2.846924 6.835968-6.705933 8.731353-15.459198 9.341034-24.610535.904693-13.578415-2.839173-26.346397-6.818085-39.079704-3.172943-10.154-7.292084-20.051354-8.644196-30.709847-1.107788-8.732643-.824859-17.323078 3.430481-25.33057.852356-1.603874 1.889801-3.143581 3.048126-4.542111 1.494202-1.804065 3.211701-3.760871 5.86789-2.939914 2.899689.896198 2.444732 3.617607 2.506409 5.907669.193817 7.197868-1.998444 14.151966-2.060273 21.361393-.075805 8.84185 1.841278 17.076271 5.368378 25.146095 4.779449 10.935143 10.810303 21.472366 12.606049 33.486565 3.167205 21.189758-.506531 41.665512-6.194916 62.091842-5.260468 18.889939-15.605622 35.225846-24.275757 52.433762-7.188782 14.267822-8.514557 28.483734.787018 42.575989 8.395508 12.719482 15.89978 25.917114 17.283172 41.528503 1.545563 17.441132-3.128326 33.294525-13.069641 47.620056-1.025573 1.477875-2.42514 2.783814-3.880493 3.859192-4.180145 3.088898-8.087952 1.865967-9.884888-2.997375-2.588806-7.006501-2.036529-14.470825-3.030243-21.708344-1.74057-12.677032-3.809661-25.260834-8.124633-37.394806 1.986175 9.602753 4.150299 19.173065 5.906799 28.817627 1.645752 9.036316 2.345337 18.150299.771606 27.324768-2.565551 14.956177-13.568298 22.489899-28.247283 18.957581-12.023285-2.893219-21.943512-9.733826-30.575776-18.191742-24.305938-23.815125-43.144531-51.456268-56.657989-82.719757-3.31192-7.662201-6.112122-15.480347-8.192841-23.557404-.414154-1.607788-.814148-3.242126-.965942-4.887695-.132843-1.439697-.386231-3.125732 1.364197-3.931366 1.693817-.779572 2.958343.323303 3.973602 1.358429 4.57785 4.667541 8.821716 9.782166 11.051025 15.891632 6.188233 16.959137 17.702759 28.998566 32.95456 38.065765 13.90744 8.268036 24.07315 20.3331 32.906799 33.637818.533905.804107 1.170136 1.540222 2.030792 2.124176-2.056335-5.253662-5.693847-9.526093-8.667511-14.206329-5.619568-8.844483-11.358307-17.619751-14.222656-27.897309-3.541473-12.707062-1.606659-24.438629 6.137238-35.078522 4.013519-5.514495 8.260894-10.875457 12.655731-16.09259 12.25534-14.548431 14.932281-40.7612 5.743225-56.439331-2.986542-5.095566-7.604248-8.295364-12.283081-11.49588-7.282715-4.981705-14.780457-9.649399-21.612641-15.278656-16.306701-13.435593-17.120269-29.893555-2.619354-45.291138 7.507599-7.971786 16.193848-14.960861 21.728089-24.672134 2.473297-4.34008 4.468048-8.993347 7.300506-13.073769 1.834992-2.643562 2.96518-7.277038 8.29599-5.131096z"/><path d="m464.029205 640c-.011139-61.646362-.0224-122.792725-.032653-183.939117-.001465-8.830841.003601-8.821808 8.722137-11.562104 2.541656-.798828 5.060577-1.669647 7.592743-2.498871 2.561035-.838714 3.837585.1185 3.867584 2.79184.013062 1.166168.029846 2.332398.029968 3.498596.008942 84.305298.018067 168.610596.021027 252.915894.000244 7.713928-.019104 7.769714-7.802521 7.685974-13.378753-.143921-12.311615 1.431152-12.34256-12.410523-.041748-18.660522-.039123-37.321106-.055725-56.481689z"/><path d="m565.65979 603.006714c19.305115 2.919006 30.206421 21.319519 32.5495 37.116699.78186 5.27124 1.257385 10.564819.910339 15.914063-.209351 3.227417-1.698975 5.00354-5.019348 4.826782-16.64325-.885864-33.283631-.29773-49.926575-.00708-4.321777.0755-8.649536-.271302-12.974243-.262451-3.708496.007629-5.130737 1.459411-4.479126 5.632263 3.117248 19.962158 15.36206 27.561035 33.298767 28.642151 8.799683.530334 17.254944-1.25586 25.488098-4.079041 3.134339-1.074707 4.613892-.400513 5.427918 2.763367 3.387024 13.16571 2.56958 10.603271-7.17273 13.80365-12.314636 4.04541-25.143677 4.329406-37.586609 2.186218-20.937805-3.606567-33.39563-17.053223-37.916229-37.596069-3.819305-17.355896-1.126617-34.112671 8.402863-48.972046 11.277343-17.584839 28.299438-23.267151 48.997375-19.968506m-13.821045 14.094604c-14.95166.762268-25.003967 17.17743-24.297729 28.136658.429748.142883.891296.429443 1.353759.430908 15.638184.04773 31.276429.053894 46.914551.10614 2.845581.009461 3.724426-1.230346 3.437805-4.045044-1.320434-12.967163-7.988037-25.766235-27.408386-24.628662z"/><path d="m276.226929 652.654114c-5.690064-14.092285-11.229584-27.83313-16.714936-41.595581-2.461914-6.17688-1.936889-7.095276 4.544342-7.017029 18.166718.219055 13.508759-2.712097 19.614808 13.617859 6.414489 17.154724 12.767669 34.332641 19.065277 51.530639 1.591491 4.346192 2.869171 8.807312 4.500793 13.865845 2.322571-2.463623 2.671875-5.090088 3.461304-7.467407 7.447265-22.427918 14.871307-44.863525 22.280639-67.304016.939454-2.845337 2.537964-4.459473 5.817078-4.299744 4.156006.202393 8.329804.00647 12.494476.073975 2.635621.042663 4.226227.933227 2.994629 4.025696-14.042968 35.260742-25.963684 71.367675-41.876159 105.878112-6.485352 14.065186-14.992432 26.739136-28.511872 35.205628-3.53125 2.211426-7.27008 4.028625-11.232666 5.39447-3.051605 1.05188-5.080352.71637-5.955658-2.898132-.935485-3.862915-3.574401-7.806275-3.089264-11.392517.574524-4.247132 6.277222-4.072754 9.513886-6.223755 9.818207-6.524964 17.480896-14.738892 22.161713-25.698914 1.146118-2.683655 1.324554-4.977844.258087-7.618652-6.419892-15.897034-12.776215-31.819702-19.326477-48.076477z"/><path d="m320.492981 586.442017c-.396637-2.884949-.735382-5.344971-1.074097-7.805054-.373474-.359741-.746948-.719544-1.120422-1.079346-1.500488 1.860535-2.841644 3.881348-4.526703 5.556153-13.363586 13.281921-36.336761 15.050842-50.306457 3.707397-7.76587-6.305908-11.275147-15.014832-12.730591-24.699158-1.494004-9.940918-.991486-19.945739-1.032166-29.931274-.052933-12.995911.097901-25.993775-.082306-38.987457-.055572-4.006623 1.072861-5.580567 5.359543-5.573426 14.396805.023926 14.393936-.127594 14.386734 14.325531-.007538 15.16211.000397 30.324219-.016052 45.486328-.006775 6.261475 1.557861 12.162781 3.888092 17.92157 4.471008 11.049439 15.379883 14.149292 26.807159 10.316284 11.291718-3.787353 17.635834-13.772094 17.651642-25.771301.024109-18.327881.015381-36.655762.023041-54.983642.003052-7.256134.006042-7.250794 7.029633-7.195527 2.499084.019684 5.013702.182587 7.494232-.031921 3.951111-.341705 5.203277 1.305725 5.155883 5.198212-.17453 14.326935-.086578 28.657287-.063507 42.986328.0271 16.81781-.397552 33.64862.941254 50.436035.343018 4.301209-1.050537 6.298401-5.518402 5.904663-2.149658-.189392-4.339447-.176819-6.492859-.014221-3.931457.296631-6.100281-1.108582-5.773651-5.766174z"/><path d="m190.286133 518.651855c.009369-3.616149.045868-6.776763.114242-9.936706.078308-3.618866-1.311798-5.572479-5.292617-5.490723-10.235932.210205-9.325745 1.381928-9.516922-10.336181-.064972-3.981415 1.607696-5.457917 5.373794-5.166596 1.156159.089386 2.329041-.063537 3.494064-.05841 3.948319.017334 5.691285-1.353058 5.753418-5.870118.100159-7.281311.888169-14.582397 3.555191-21.557098 6.47873-16.942902 23.046525-25.91449 41.461792-22.261108.978821.194183 1.936203.570098 2.920685.649597 4.853043.391967 7.021897 2.571869 5.307373 7.572082-.319198.930908-.425476 1.954804-.501434 2.945648-.385849 5.034211-2.262955 6.49054-7.77298 5.345124-13.384979-2.782501-20.588669 2.135742-23.863205 15.352966-1.033035 4.169678-1.345947 8.522308-1.91513 12.800964-.467545 3.514679.845535 5.270539 4.694091 5.12201 5.321503-.205445 10.658616.031158 15.985962-.075531 3.377442-.067627 4.695755 1.436004 4.897889 4.760803.63977 10.523041.451614 10.80719-10.247193 10.817169-3.497497.003265-7.008575.184601-10.489044-.061035-4.266159-.301087-4.914062 1.984894-4.89978 5.527923.083236 20.651581.034012 41.303681.028763 61.955658-.001435 5.662659-.116349 11.328186.034637 16.986756.085968 3.222351-1.257874 4.338379-4.390884 4.543152-14.422135.942505-14.392594 1.009704-14.43721-13.16156-.062912-19.983033-.167511-39.965943-.295502-60.404786z"/><path d="m372.566406 692.382935c-24.859619-32.440064-7.160705-81.387207 31.960449-89.020874 11.79361-2.301209 23.48169-1.347718 34.945893 2.445922 3.592224 1.18866 5.030975 3.176331 3.408142 6.67743-1.464569 3.15979-.779419 7.634399-3.722656 9.534912-2.970063 1.917785-6.171082-1.344666-9.318116-2.086792-13.026336-3.072022-25.273376-2.192322-35.785614 6.754211-16.676788 14.193115-16.679565 45.767151.135529 59.765381 11.238953 9.356323 24.283417 9.738953 37.790222 5.657043 7.779205-2.350952 7.792511-2.306884 10.082001 5.513855 1.988281 6.791871 2.097442 7.370362-4.724091 9.304078-20.11264 5.701171-39.750457 6.274597-57.585876-7.140381-2.701874-2.032227-4.780792-4.615357-7.185883-7.404785z"/><path d="m225.905975 602.669067c6.378754.125611 12.027802 1.377137 17.516831 3.508973 2.434585.945556 3.442169 2.467224 2.676025 5.02716-.047684.159363-.083542.322449-.119507.485047-2.437484 11.018005-2.372329 10.743957-13.317184 8.145324-15.898132-3.774719-30.418244-1.375793-40.819672 12.395325-12.578994 16.654175-10.174667 51.512024 15.624802 60.138428 10.003082 3.344665 20.072052 2.125183 29.90921-1.228455 5.978882-2.03833 5.956589-2.103699 7.027008 3.824158 1.933685 10.708618 1.993775 10.974426-8.723739 13.396301-14.162369 3.200318-28.27826 3.90094-42.072632-2.161865-18.684738-8.212219-27.008698-23.451782-28.828247-42.792908-1.156891-12.297302.676468-24.286072 7.012268-35.193725 9.16774-15.783142 23.279678-23.73816 41.146606-25.414612 4.129578-.387451 8.320862-.117615 12.968231-.129151z"/><path d="m387.334625 457.053986c.016693 43.624328-.014129 86.758453.134186 129.891937.013641 3.963928-1.259918 5.57605-5.119049 5.255676-.826874-.068603-1.66507.013672-2.497131-.00885-13.923584-.376343-12.64795 2.559692-12.64914-12.991333-.003418-43.787109.472992-87.574219.778259-131.361237.039643-5.688079.635346-6.089202 6.140442-4.531219 1.280579.362366 2.565094.710937 3.84845 1.063415 10.647278 2.924408 9.281616 1.471589 9.363983 12.681611z"/><path d="m437.36969 464.147308c-.004761 39.312409-.014587 78.145417-.011322 116.978485.000946 11.20691.017731 11.257569-11.324829 11.150147-9.348938-.08844-8.937439 1.274353-8.9328-8.827881.018981-41.333008-.004822-82.665985-.00943-123.998962-.000763-7.047486.237213-7.280091 7.280304-7.349579.499969-.004914.999969.000183 1.499969-.000458 11.53418-.014221 11.53418-.014252 11.498108 12.048248z"/><path d="m497.875671 328.157867c-2.867859-1.861755-5.873291-3.021637-7.60083-5.948608 3.603943-4.160339 7.257721-1.621704 11.231263-.834503-.009644-3.065888 2.6221-3.926544 4.7229-5.129791-.089661-3.098389-2.505127-4.900452-3.22876-7.426026-.527191-1.840057-1.960815-3.997436.057221-5.539154 2.115448-1.61615 3.620025.566437 5.169952 1.650696.649414.454285 1.107941 1.181488 1.810028 1.958038.573425-1.630005.489594-3.743591 2.713165-3.673065 4.241394.134552 5.455811 3.792847 7.280579 6.631195 6.498169-1.205353 6.498169-1.205353 6.581177 9.528015 2.128845.228272 3.767456-4.049957 5.990356-1.039947 2.439881 3.303833-.27655 5.853637-2.442505 8.678528 3.386414.411926 6.272339-.599091 9.227845-1.138459 2.007995-.366424 4.682434-1.454773 5.570007 1.409546.971985 3.136261-1.281311 4.449097-4.021668 5.036591-.393982.084473-.756775.315033-1.653198.702301 1.776978.523987 3.017029.875122 4.247925 1.255829 2.08313.644256 3.841797 1.636352 2.909607 4.234955-.932923 2.600677-3.064514 2.142028-5.02655 1.532104-2.050354-.637421-3.951722-1.627838-6.189454-1.779114-7.716796-.521637-11.924438 1.690735-15.044311 8.795899-2.800598 6.377929-5.207337 12.930023-7.738342 19.42453-1.121521 2.877746-1.905121 6.013122-6.21875 3.954071-4.308777-2.056732-5.288391-4.214661-3.252198-8.279968 1.877747-3.748993 4.663178-6.847565 7.465973-9.933136 5.955963-6.556824 5.766205-10.597413-1.157593-16.277375-3.453918-2.833404-7.378814-5.092651-11.403839-7.793152z"/><path d="m353.764832 283.855896c-1.085022 1.552368-.536774 4.579254-3.588288 3.901916-2.278534-.505737-2.674042-2.737365-2.769562-4.813262-.074249-1.614258.635926-3.276459-.291412-4.893494-2.413269-.265259-1.117889 3.095215-3.689819 3.143066-3.670929-1.812988-.394623-5.392059-1.13913-8.282776-2.641968.401581-4.06073 2.475281-6.044922 3.513092-1.199035.627198-2.313507 1.607514-3.525696.22287-1.020599-1.165741-.890747-2.608551-.028534-3.697784 1.511384-1.909363 3.258393-3.632172 4.99231-5.526703-2.522919-1.971924-5.277649-.899841-7.829742-1.15741-2.551758-.257507-5.394715.704956-7.56781-1.959747 1.646301-4.301636 5.774902-2.786224 9.27362-3.783264-2.084595-1.529205-3.978912-2.772675-5.696075-4.225617-1.328125-1.123764-2.303192-2.757782-1.263886-4.413604 1.258393-2.004898 2.916657-.611023 4.391205.018112 2.200958.939102 4.153534 2.620117 7.115021 2.603836-.700836-2.78949-2.84082-4.027191-4.118469-5.857819-.784516-1.124008-1.541932-2.353775-.399842-3.606872 1.260285-1.382843 2.657776-1.049393 3.969208.052658 2.900269 2.437225 5.80127 4.873535 8.595612 7.220856.672699-.43422 1.068023-.545243 1.192504-.792572.981598-1.95015.197541-5.515549 3.192078-5.530442 3.036377-.015121 2.477356 3.400864 3.076813 5.501206 1.001221 3.507995 3.058838 3.487472 5.636261 1.802002 5.42987-3.550827 10.743439-7.307892 16.842529-9.682099 4.571411-1.779495 9.189179-3.371994 14.518433-2.490844-.358948 3.592239-2.653717 4.801467-4.870026 5.729309-5.055084 2.116195-10.248382 3.899948-15.332062 5.951309-1.830932.7388-3.54248 1.800522-5.247589 2.817047-2.007385 1.196716-3.31842 2.877228-2.683746 5.366699.611725 2.399384 2.657684 2.71698 4.707886 2.923157.331237.033295.692749.010284.985931.138061 2.128265.92743 6.030518-.39508 6.153595 2.85492.142731 3.768463-4.000916 1.524353-6.378662 3.083465 1.453705.924866 2.734833 1.780518 4.055908 2.569245 1.363861.81427 3.607117 1.257751 2.554871 3.449493-.844849 1.759735-2.765473 2.287415-4.752808 1.745606-1.230133-.335358-2.437378-.754578-3.724762-1.158051-.927734 3.025421 4.076172 6.625458-.0018 7.985291-2.702851.901336-7.299744 5.708374-10.309143-.720856z"/><path d="m334.021942 357.863647c-.502533-7.456054-.708557-14.44519-.173981-21.437561.112183-1.467712.007447-3.210754 1.981629-3.543396 1.59259-.268341 2.332275 1.09311 3.05896 2.17923 1.959533 2.92865 2.363495 6.174256 1.697021 9.577332-1.027588 5.247253-1.50711 10.516998-1.411804 15.885284.064423 3.628601 1.47348 6.23822 4.676361 7.529297 4.64032 1.870422 9.453095 3.320007 14.575775 2.178284 1.921784-.428315 4.191376-1.626374 5.268677.851715 1.068787 2.458435-1.385193 3.382538-2.959289 4.500763-.668244.474762-1.457978.778442-2.180329 1.153534.626007 5.398285-6.054382 10.84378-13.025482 10.059662-.246643 8.33319-7.223358 3.871337-10.865662 5.906341-2.302551-1.301758-1.33908-3.532226-2.171051-5.197906-2.187011-.129212-2.758239 2.102325-4.259308 2.930847-2.630981 1.45227-5.245391 5.407837-7.820068-.171143-.593689-1.286438-2.078796-.461395-3.200165-.477966-2.486145-.036713-4.930023-.330444-6.782196-2.61499 1.845215-3.878815 6.258545-3.058197 8.902314-5.45694-1.858704-1.598969-5.065278-.339966-6.334504-3.037079.859894-2.394257 3.103211-2.837799 5.067932-3.552063 1.397858-.508148 2.919251-.664734 4.364258-1.056671 12.134095-3.291229 12.132599-3.296722 11.590912-16.206574z"/><path d="m496.167358 273.78891c1.948914 1.600799 3.680268 2.911316 5.284882 4.36206 1.79834 1.625855 4.609222 3.36316 2.037079 6.052582-2.195435 2.295502-4.190033.210877-5.916321-1.451385-2.75769-2.655426-5.514465-5.313904-8.342865-7.892975-1.937958-1.76709-3.805359-3.807098-6.852112-3.353272-1.958435 1.892853.328827 5.98288-1.726166 6.322266-5.083007.839569-5.263458 5.075409-7.053649 8.453857-4.373414-1.316925-3.592164-4.622711-3.432831-7.854278-2.800659.802826-4.436219 5.647125-7.885559 2.979645-2.300629-1.779175.884124-3.343781 1.550506-5.456635-1.525757-.623077-3.729522.82193-4.798645-.953338-1.409179-2.339966 1.80362-3.016449 1.920319-4.452118.33905-4.170472 2.744507-5.658753 6.75415-5.911713-1.114074-2.766083-5.129059-2.467102-5.248169-5.640137 1.916626-2.6362 4.386414-.302887 6.802491-.929809.900543-2.634171-3.170624-6.117646.815307-8.325272 2.276123-1.260635 2.731445 2.02243 4.577515 2.182785 1.66037-1.369491.742279-3.485336 1.481598-5.101395.78186-1.708953.423919-4.612762 3.045288-4.559005 3.036407.062286 1.522918 3.112213 2.309875 4.847671 1.93866-1.220703 1.637238-5.700851 4.946839-4.341263 3.023712 1.242127 1.034301 4.414994 1.106781 6.730988.915588 1.250763 1.814209.268951 2.667785.003555 1.211273-.376602 2.389618-.477356 3.093994.737671.729615 1.258484-.243072 2.207398-.956756 3.102112-1.86084 2.332886-3.764496 4.631638-5.882507 7.227676 2.690856 2.050782 3.545532 4.253601-.013733 6.478791 3.498138 2.412964 6.469757 4.462738 9.714904 6.740936z"/><path d="m416.355896 417.663696c6.704407 5.586243 8.389893 5.472748 13.718323-.731292 2.383056-2.77472 4.708923-5.59845 7.066498-8.395142.780212-.925507 1.707763-1.732269 2.990783-1.377136 1.385224.383392 1.388977 1.59497 1.445771 2.818268.322326 6.944091.74353 7.284668 7.617279 6.533569 1.504608-.164429 2.992981-.270722 3.808471.581634 1.914459 7.141083-3.915313 10.52884-6.493774 15.375367-.586884 1.103149-2.088654.806335-3.229767.897674-1.188843.095123-2.514221.14325-2.772186 1.584351-.780518 4.360321-3.434601 3.010711-6.265503 1.66745 0 1.9953.169189 3.609832-.038635 5.174255-.334046 2.51416-.510193 5.519074-4.4805 3.371552-.378692-.204804-1.056396-.283326-1.385833-.080475-1.611451.99234-3.290284 2.146118-4.871369.26062-1.58963-1.895722-.1763-3.744354.547089-5.574677 2.357635-5.96521 1.232025-9.818145-4.320862-13.105652-4.283753-2.536102-8.869934-4.556579-13.272064-6.899505-2.075806-1.104736-4.485047-2.373047-2.806671-5.316742 1.541839-2.704224 3.962768-3.327728 6.848693-1.888886 2.300202 1.146851 3.9693 2.988739 5.894257 5.104767z"/><path d="m483.455841 379.999664c2.740295.193451 5.645721-.463653 5.149262 3.66333-.236573 1.966614 1.939483 1.415314 2.671752 2.45633.953919 1.35614-.257873 2.534576-.237396 3.783294 1.642731.742249 3.432556-1.060577 4.868805.647156.776825 2.844055-2.180755 3.22461-3.51178 4.96814 1.883026 2.277283 5.946991 1.300445 7.085755 4.429382-.281586 2.114624-2.282196 1.85437-3.400025 2.854065-.802002 1.75885 2.236695 3.858704-.064575 5.373322-1.988891 1.30896-3.168274-1.137299-5.054809-1.812348-1.142762 1.263458 1.37738 4.012787-1.151917 4.430237-3.745941.618408-3.871216-3.528381-6.810913-5.582764-.980042-.42575-1.723663 2.579651-2.73172 2.060578-2.904633-1.403046-1.908539-3.750428-2.939056-5.210877-5.046234-2.648926-11.109253 4.75885-16.282196-1.661926 4.097656-3.236603 10.098877-.362457 13.338348-4.866669-.843658-2.963287-4.680389-2.663849-5.746765-5.776428.628479-1.786774 3.48642-3.26593 1.222168-6.757111 5.772461 1.758667 7.675659-6.629669 13.595062-2.997711z"/><path d="m372.145874 411.863098c3.868561-3.159881 4.014435-6.293823 1.268616-10.075989-1.660889-2.28775-5.830841-5.547485-2.234375-7.729248 3.172424-1.924499 4.380188 3.198853 6.062958 5.620026.55603.799957 1.087402 1.617004 1.925292 2.866608 4.624756-1.841614 9.486329-6.237336 14.095704.6846.361663 6.023255-4.732666 13.697266-11.310547 15.40091-1.92688.499023-2.459107 2.65213-4.535309 2.647613-3.828278-.008361-7.065521-5.292907-5.272339-9.41452z"/></svg>